<svg version="1" xmlns="http://www.w3.org/2000/svg" width="933.333" height="933.333" viewBox="0 0 700.000000 700.000000"><path d="M125.2 1.1C83.8 6 46.6 29 23.5 64c-10 15.2-16.4 30.6-20.7 50L.5 124.5v452l2.3 10.4c6.2 28.3 18.3 50.9 37.4 70.7 18.9 19.5 40.8 32.1 68.8 39.6l8.5 2.3 229 .2c253.9.4 236.3.8 257.3-6.2 46.5-15.6 81.1-53.4 93.4-102l2.3-9V351c0-222-.1-231.8-1.9-239.5-4.3-18.6-13.1-38.2-24.2-53.6-3.2-4.3-10.3-12.3-15.8-17.7-19.6-19-41.9-30.9-70.2-37.4L577.5.6 355 .4c-122.4-.1-225.8.2-229.8.7zM323.1 91c104.2 3.1 154.5 18.7 197.7 61.3 33.6 33.1 54.1 74.1 62.8 125.7 2.1 12.9 3 53 1.5 68.6-5.3 53.1-21.2 98.5-49.5 141.4-28.8 43.7-61.5 73.8-101.1 93-28.6 13.9-52.7 20.4-96.5 26.2-14.6 2-21.8 2.1-119.2 2.5-62.4.3-103.8.1-103.8-.5 0-.8 18.2-12.5 33.5-21.5 34-19.9 82.8-44.1 126.6-62.7 13.4-5.7 13.8-5.8 26-6.5 25.1-1.4 47.2-4.5 62.4-9 51.2-14.8 93.5-56.9 111.4-111 8.4-25.3 11.6-49.1 10.8-80.3-.6-22.8-2.2-32.9-7.8-48.9-14.7-41.6-48.3-70.5-94.6-81.3-15.2-3.6-30.4-5.1-56.9-5.7-21.7-.5-26.2-.3-26.6.8-.3.8-11.9 57.7-25.8 126.5l-25.3 125.1-22.1 6.2c-12.2 3.4-35.5 10.3-51.9 15.3-16.3 5-29.9 8.9-30.1 8.7-.4-.4 74.8-370.8 75.8-373.5.7-1.7 53-1.9 102.7-.4z"/></svg>